# Made in Blockbench 5.0.7
mtllib kempporter.mtl

o plane
v 0.5 0 0.5
v 0.5 0 -0.5
v -0.5 0 0.5
v -0.5 0 -0.5
vt 0.25 0.75
vt 0.25 1
vt 0 1
vt 0 0.75
vn 0 1 0
usemtl m_8fb951f0-ffa5-b76f-586d-4410fb470b23
f 1/1/1 2/2/1 4/3/1 3/4/1
o mesh
v 0.40625 1.625 0.40625
v 0.40625 1.625 0.09375
v 0.40625 0 0.40625
v 0.40625 0 0.09375
v -0.15625 1.625 0.40625
v -0.15625 1.625 0.09375
v -0.15625 0 0.40625
v -0.15625 0 0.09375
vt 0.234375 0.734375
vt 0.15625 0.734375
vt 0.15625 0.328125
vt 0.234375 0.328125
vt 0.234375 0.328125
vt 0.234375 0.734375
vt 0.15625 0.734375
vt 0.15625 0.328125
vt 0.59375 0.34375
vt 0.734375 0.34375
vt 0.734375 0.421875
vt 0.59375 0.421875
vt 0.75 0.765625
vt 0.75 0.84375
vt 0.609375 0.84375
vt 0.609375 0.765625
vt 0.40625 0.59375
vt 0.40625 1
vt 0.265625 1
vt 0.265625 0.59375
vt 0.40625 1
vt 0.265625 1
vt 0.265625 0.59375
vt 0.40625 0.59375
vn 1 0 0
vn -1 0 0
vn 0 1 0
vn 0 -1 0
vn 0 0 1
vn 0 0 -1
usemtl m_8fb951f0-ffa5-b76f-586d-4410fb470b23
f 6/5/2 5/6/2 7/7/2 8/8/2
f 11/9/3 9/10/3 10/11/3 12/12/3
f 9/13/4 5/14/4 6/15/4 10/16/4
f 8/17/5 7/18/5 11/19/5 12/20/5
f 7/21/6 5/22/6 9/23/6 11/24/6
f 10/25/7 6/26/7 8/27/7 12/28/7
o mesh
v 0.30465442161343237 0.5625 0.08392186002460159
v 0.4568447788656126 0.5625 -0.1144164750482072
v 0.30465442161343237 0 0.08392186002460159
v 0.4568447788656126 0 -0.1144164750482072
v -0.042437664763982974 0.5625 -0.1824112651667137
v 0.10975269248819719 0.5625 -0.3807496002395225
v -0.042437664763982974 0 -0.1824112651667137
v 0.10975269248819719 0 -0.3807496002395225
vt 0.6875 0.65625
vt 0.625 0.65625
vt 0.625 0.515625
vt 0.6875 0.515625
vt 0.6875 0.515625
vt 0.6875 0.65625
vt 0.625 0.65625
vt 0.625 0.515625
vt 0.625 0.4375
vt 0.734375 0.4375
vt 0.734375 0.5
vt 0.625 0.5
vt 0.796875 0.265625
vt 0.796875 0.328125
vt 0.6875 0.328125
vt 0.6875 0.265625
vt 0.625 0.859375
vt 0.625 1
vt 0.515625 1
vt 0.515625 0.859375
vt 0.625 1
vt 0.515625 1
vt 0.515625 0.859375
vt 0.625 0.859375
vn 0.7933533402912352 0 0.6087614290087207
vn -0.7933533402912352 0 -0.6087614290087207
vn 0 1 0
vn 0 -1 0
vn -0.6087614290087207 0 0.7933533402912352
vn 0.6087614290087207 0 -0.7933533402912352
usemtl m_8fb951f0-ffa5-b76f-586d-4410fb470b23
f 14/29/8 13/30/8 15/31/8 16/32/8
f 19/33/9 17/34/9 18/35/9 20/36/9
f 17/37/10 13/38/10 14/39/10 18/40/10
f 16/41/11 15/42/11 19/43/11 20/44/11
f 15/45/12 13/46/12 17/47/12 19/48/12
f 18/49/13 14/50/13 16/51/13 20/52/13
o mesh
v -0.15625 0.75 0.40625
v -0.15625 0.75 -0.03125
v -0.15625 0 0.40625
v -0.15625 0 -0.03125
v -0.46875 0.75 0.40625
v -0.46875 0.75 -0.03125
v -0.46875 0 0.40625
v -0.46875 0 -0.03125
vt 0.359375 0.578125
vt 0.25 0.578125
vt 0.25 0.390625
vt 0.359375 0.390625
vt 0.484375 0.390625
vt 0.484375 0.578125
vt 0.375 0.578125
vt 0.375 0.390625
vt 0.640625 0.890625
vt 0.71875 0.890625
vt 0.71875 1
vt 0.640625 1
vt 0.671875 0.21875
vt 0.671875 0.328125
vt 0.59375 0.328125
vt 0.59375 0.21875
vt 0.59375 0.65625
vt 0.59375 0.84375
vt 0.515625 0.84375
vt 0.515625 0.65625
vt 0.578125 0.421875
vt 0.5 0.421875
vt 0.5 0.234375
vt 0.578125 0.234375
vn 1 0 0
vn -1 0 0
vn 0 1 0
vn 0 -1 0
vn 0 0 1
vn 0 0 -1
usemtl m_8fb951f0-ffa5-b76f-586d-4410fb470b23
f 22/53/14 21/54/14 23/55/14 24/56/14
f 27/57/15 25/58/15 26/59/15 28/60/15
f 25/61/16 21/62/16 22/63/16 26/64/16
f 24/65/17 23/66/17 27/67/17 28/68/17
f 23/69/18 21/70/18 25/71/18 27/72/18
f 26/73/19 22/74/19 24/75/19 28/76/19
o mesh
v -0.2605835249517928 0.3125 0.08184477886561259
v 0.043797189552567506 0.3125 -0.314831891280005
v -0.2605835249517928 0 0.08184477886561259
v 0.043797189552567506 0 -0.314831891280005
v -0.45892186002460156 0.3125 -0.0703455783865676
v -0.15454114552024126 0.3125 -0.4670222485321852
v -0.45892186002460156 0 -0.0703455783865676
v -0.15454114552024126 0 -0.4670222485321852
vt 0.734375 0.75
vt 0.609375 0.75
vt 0.609375 0.671875
vt 0.734375 0.671875
vt 0.375 0.296875
vt 0.375 0.375
vt 0.25 0.375
vt 0.25 0.296875
vt 0 0.1875
vt 0.0625 0.1875
vt 0.0625 0.3125
vt 0 0.3125
vt 0.140625 0.1875
vt 0.140625 0.3125
vt 0.078125 0.3125
vt 0.078125 0.1875
vt 0.21875 0.234375
vt 0.21875 0.3125
vt 0.15625 0.3125
vt 0.15625 0.234375
vt 0.765625 0.65625
vt 0.703125 0.65625
vt 0.703125 0.578125
vt 0.765625 0.578125
vn 0.7933533402912352 0 0.6087614290087207
vn -0.7933533402912352 0 -0.6087614290087207
vn 0 1 0
vn 0 -1 0
vn -0.6087614290087207 0 0.7933533402912352
vn 0.6087614290087207 0 -0.7933533402912352
usemtl m_8fb951f0-ffa5-b76f-586d-4410fb470b23
f 30/77/20 29/78/20 31/79/20 32/80/20
f 35/81/21 33/82/21 34/83/21 36/84/21
f 33/85/22 29/86/22 30/87/22 34/88/22
f 32/89/23 31/90/23 35/91/23 36/92/23
f 31/93/24 29/94/24 33/95/24 35/96/24
f 34/97/25 30/98/25 32/99/25 36/100/25
o mesh
v 0.28125 1.6875000000000002 0.34375
v 0.28125 1.6875000000000002 0.15625
v 0.28125 1.625 0.34375
v 0.28125 1.625 0.15625
v 0.09375 1.6875000000000002 0.34375
v 0.09375 1.6875000000000002 0.15625
v 0.09375 1.625 0.34375
v 0.09375 1.625 0.15625
vt 0.6875 0.875
vt 0.640625 0.875
vt 0.640625 0.859375
vt 0.6875 0.859375
vt 0.75 0.859375
vt 0.75 0.875
vt 0.703125 0.875
vt 0.703125 0.859375
vt 0.515625 0.59375
vt 0.5625 0.59375
vt 0.5625 0.640625
vt 0.515625 0.640625
vt 0.75 0.515625
vt 0.75 0.5625
vt 0.703125 0.5625
vt 0.703125 0.515625
vt 0.78125 0.984375
vt 0.78125 1
vt 0.734375 1
vt 0.734375 0.984375
vt 0.78125 0.96875
vt 0.734375 0.96875
vt 0.734375 0.953125
vt 0.78125 0.953125
vn 1 0 0
vn -1 0 0
vn 0 1 0
vn 0 -1 0
vn 0 0 1
vn 0 0 -1
usemtl m_8fb951f0-ffa5-b76f-586d-4410fb470b23
f 38/101/26 37/102/26 39/103/26 40/104/26
f 43/105/27 41/106/27 42/107/27 44/108/27
f 41/109/28 37/110/28 38/111/28 42/112/28
f 40/113/29 39/114/29 43/115/29 44/116/29
f 39/117/30 37/118/30 41/119/30 43/120/30
f 42/121/31 38/122/31 40/123/31 44/124/31
o mesh
v 0.29311742715827527 0.625 -0.0037103130566456533
v 0.3692126057843653 0.625 -0.10287948059305005
v 0.29311742715827527 0.5625 -0.0037103130566456533
v 0.3692126057843653 0.5625 -0.10287948059305005
v 0.14436367585366866 0.625 -0.11785308099578079
v 0.22045885447975874 0.625 -0.21702224853218519
v 0.14436367585366866 0.5625 -0.11785308099578079
v 0.22045885447975874 0.5625 -0.21702224853218519
vt 0.609375 0.640625
vt 0.578125 0.640625
vt 0.578125 0.625
vt 0.609375 0.625
vt 0.609375 0.59375
vt 0.609375 0.609375
vt 0.578125 0.609375
vt 0.578125 0.59375
vt 0.234375 0.25
vt 0.28125 0.25
vt 0.28125 0.28125
vt 0.234375 0.28125
vt 0.34375 0.25
vt 0.34375 0.28125
vt 0.296875 0.28125
vt 0.296875 0.25
vt 0.78125 0.921875
vt 0.78125 0.9375
vt 0.734375 0.9375
vt 0.734375 0.921875
vt 0.78125 0.90625
vt 0.734375 0.90625
vt 0.734375 0.890625
vt 0.78125 0.890625
vn 0.7933533402912352 0 0.6087614290087207
vn -0.7933533402912352 0 -0.6087614290087207
vn 0 1 0
vn 0 -1 0
vn -0.6087614290087207 0 0.7933533402912352
vn 0.6087614290087207 0 -0.7933533402912352
usemtl m_8fb951f0-ffa5-b76f-586d-4410fb470b23
f 46/125/32 45/126/32 47/127/32 48/128/32
f 51/129/33 49/130/33 50/131/33 52/132/33
f 49/133/34 45/134/34 46/135/34 50/136/34
f 48/137/35 47/138/35 51/139/35 52/140/35
f 47/141/36 45/142/36 49/143/36 51/144/36
f 50/145/37 46/146/37 48/147/37 52/148/37
o mesh
v 0.42370174783372294 0.1875 -0.3184012632704602
v 0.4019957256253566 0.1875 -0.44150223239698616
v 0.42370174783372294 0.0625 -0.3184012632704602
v 0.4019957256253566 0.0625 -0.44150223239698616
v 0.3006007787071969 0.1875 -0.2966952410620939
v 0.2788947564988306 0.1875 -0.4197962101886199
v 0.3006007787071969 0.0625 -0.2966952410620939
v 0.2788947564988306 0.0625 -0.4197962101886199
vt 0.015625 1
vt 0 1
vt 0 0.984375
vt 0.015625 0.984375
vt 0.015625 0.984375
vt 0.015625 1
vt 0 1
vt 0 0.984375
vt 0 0.984375
vt 0.015625 0.984375
vt 0.015625 1
vt 0 1
vt 0.015625 0.984375
vt 0.015625 1
vt 0 1
vt 0 0.984375
vt 0.015625 0.984375
vt 0.015625 1
vt 0 1
vt 0 0.984375
vt 0.015625 1
vt 0 1
vt 0 0.984375
vt 0.015625 0.984375
vn 0.984807753012208 0 -0.17364817766693033
vn -0.984807753012208 0 0.17364817766693033
vn 0 1 0
vn 0 -1 0
vn 0.17364817766693033 0 0.984807753012208
vn -0.17364817766693033 0 -0.984807753012208
usemtl m_8fb951f0-ffa5-b76f-586d-4410fb470b23
f 54/149/38 53/150/38 55/151/38 56/152/38
f 59/153/39 57/154/39 58/155/39 60/156/39
f 57/157/40 53/158/40 54/159/40 58/160/40
f 56/161/41 55/162/41 59/163/41 60/164/41
f 55/165/42 53/166/42 57/167/42 59/168/42
f 58/169/43 54/170/43 56/171/43 60/172/43
o mesh
v 0.3693991260831383 0.06874999999999998 -0.3564243683647701
v 0.36397262053104673 0.06874999999999998 -0.38719961064640157
v 0.3693991260831383 0 -0.3564243683647701
v 0.36397262053104673 0 -0.38719961064640157
v 0.3386238838015068 0.06874999999999998 -0.35099786281267853
v 0.33319737824941525 0.06874999999999998 -0.38177310509431
v 0.3386238838015068 0 -0.35099786281267853
v 0.33319737824941525 0 -0.38177310509431
vt 0.828125 0.9765625
vt 0.8125 0.9765625
vt 0.8125 0.9609375
vt 0.828125 0.9609375
vt 0.8046875 0.9609375
vt 0.8046875 0.9765625
vt 0.7890625 0.9765625
vt 0.7890625 0.9609375
vt 0.96875 0.984375
vt 0.984375 0.984375
vt 0.984375 1
vt 0.96875 1
vt 0.96875 0.984375
vt 0.96875 1
vt 0.953125 1
vt 0.953125 0.984375
vt 0.9453125 0.984375
vt 0.9453125 1
vt 0.9296875 1
vt 0.9296875 0.984375
vt 0.921875 1
vt 0.90625 1
vt 0.90625 0.984375
vt 0.921875 0.984375
vn 0.984807753012208 0 -0.17364817766693033
vn -0.984807753012208 0 0.17364817766693033
vn 0 1 0
vn 0 -1 0
vn 0.17364817766693033 0 0.984807753012208
vn -0.17364817766693033 0 -0.984807753012208
usemtl m_8fb951f0-ffa5-b76f-586d-4410fb470b23
f 62/173/44 61/174/44 63/175/44 64/176/44
f 67/177/45 65/178/45 66/179/45 68/180/45
f 65/181/46 61/182/46 62/183/46 66/184/46
f 64/185/47 63/186/47 67/187/47 68/188/47
f 63/189/48 61/190/48 65/191/48 67/192/48
f 66/193/49 62/194/49 64/195/49 68/196/49
o mesh
v 0.3693991260831383 0.06874999999999998 -0.3564243683647701
v 0.36397262053104673 0.06874999999999998 -0.38719961064640157
v 0.3693991260831383 0 -0.3564243683647701
v 0.36397262053104673 0 -0.38719961064640157
v 0.3386238838015068 0.06874999999999998 -0.35099786281267853
v 0.33319737824941525 0.06874999999999998 -0.38177310509431
v 0.3386238838015068 0 -0.35099786281267853
v 0.33319737824941525 0 -0.38177310509431
vt 0.015625 1
vt 0 1
vt 0 0.984375
vt 0.015625 0.984375
vt 0.015625 0.984375
vt 0.015625 1
vt 0 1
vt 0 0.984375
vt 0 0.984375
vt 0.015625 0.984375
vt 0.015625 1
vt 0 1
vt 0.015625 0.984375
vt 0.015625 1
vt 0 1
vt 0 0.984375
vt 0.015625 0.984375
vt 0.015625 1
vt 0 1
vt 0 0.984375
vt 0.015625 1
vt 0 1
vt 0 0.984375
vt 0.015625 0.984375
vn 0.984807753012208 0 -0.17364817766693033
vn -0.984807753012208 0 0.17364817766693033
vn 0 1 0
vn 0 -1 0
vn 0.17364817766693033 0 0.984807753012208
vn -0.17364817766693033 0 -0.984807753012208
usemtl none
f 70/197/50 69/198/50 71/199/50 72/200/50
f 75/201/51 73/202/51 74/203/51 76/204/51
f 73/205/52 69/206/52 70/207/52 74/208/52
f 72/209/53 71/210/53 75/211/53 76/212/53
f 71/213/54 69/214/54 73/215/54 75/216/54
f 74/217/55 70/218/55 72/219/55 76/220/55
o mesh
v 0.42370174783372294 0.1875 -0.3184012632704602
v 0.4019957256253566 0.1875 -0.44150223239698616
v 0.42370174783372294 0.0625 -0.3184012632704602
v 0.4019957256253566 0.0625 -0.44150223239698616
v 0.3006007787071969 0.1875 -0.2966952410620939
v 0.2788947564988306 0.1875 -0.4197962101886199
v 0.3006007787071969 0.0625 -0.2966952410620939
v 0.2788947564988306 0.0625 -0.4197962101886199
vt 0.015625 1
vt 0 1
vt 0 0.984375
vt 0.015625 0.984375
vt 0.015625 0.984375
vt 0.015625 1
vt 0 1
vt 0 0.984375
vt 0 0.984375
vt 0.015625 0.984375
vt 0.015625 1
vt 0 1
vt 0.015625 0.984375
vt 0.015625 1
vt 0 1
vt 0 0.984375
vt 0.015625 0.984375
vt 0.015625 1
vt 0 1
vt 0 0.984375
vt 0.015625 1
vt 0 1
vt 0 0.984375
vt 0.015625 0.984375
vn 0.984807753012208 0 -0.17364817766693033
vn -0.984807753012208 0 0.17364817766693033
vn 0 1 0
vn 0 -1 0
vn 0.17364817766693033 0 0.984807753012208
vn -0.17364817766693033 0 -0.984807753012208
usemtl none
f 78/221/56 77/222/56 79/223/56 80/224/56
f 83/225/57 81/226/57 82/227/57 84/228/57
f 81/229/58 77/230/58 78/231/58 82/232/58
f 80/233/59 79/234/59 83/235/59 84/236/59
f 79/237/60 77/238/60 81/239/60 83/240/60
f 82/241/61 78/242/61 80/243/61 84/244/61
o mesh
v -0.3800307977124042 0.06874999999999998 -0.39279814579447264
v -0.4110134496303358 0.06874999999999998 -0.39687708930134924
v -0.3800307977124042 0 -0.39279814579447264
v -0.4110134496303358 0 -0.39687708930134924
v -0.3841097412192809 0.06874999999999998 -0.36181549387654105
v -0.4150923931372124 0.06874999999999998 -0.36589443738341765
v -0.3841097412192809 0 -0.36181549387654105
v -0.4150923931372124 0 -0.36589443738341765
vt 0.8984375 1
vt 0.8828125 1
vt 0.8828125 0.984375
vt 0.8984375 0.984375
vt 0.8671875 0.984375
vt 0.8671875 1
vt 0.8515625 1
vt 0.8515625 0.984375
vt 0.8671875 0.984375
vt 0.8828125 0.984375
vt 0.8828125 1
vt 0.8671875 1
vt 0.8515625 0.984375
vt 0.8515625 1
vt 0.8359375 1
vt 0.8359375 0.984375
vt 0.828125 0.984375
vt 0.828125 1
vt 0.8125 1
vt 0.8125 0.984375
vt 0.8046875 1
vt 0.7890625 1
vt 0.7890625 0.984375
vt 0.8046875 0.984375
vn 0.13052619222005135 0 -0.9914448613738105
vn -0.13052619222005135 0 0.9914448613738105
vn 0 1 0
vn 0 -1 0
vn 0.9914448613738105 0 0.13052619222005135
vn -0.9914448613738105 0 -0.13052619222005135
usemtl m_8fb951f0-ffa5-b76f-586d-4410fb470b23
f 86/245/62 85/246/62 87/247/62 88/248/62
f 91/249/63 89/250/63 90/251/63 92/252/63
f 89/253/64 85/254/64 86/255/64 90/256/64
f 88/257/65 87/258/65 91/259/65 92/260/65
f 87/261/66 85/262/66 89/263/66 91/264/66
f 90/265/67 86/266/67 88/267/67 92/268/67
o mesh
v -0.32743840457519197 0.1875 -0.4331537084110551
v -0.4513690122469183 0.1875 -0.4494694824385615
v -0.32743840457519197 0.0625 -0.4331537084110551
v -0.4513690122469183 0.0625 -0.4494694824385615
v -0.3437541786026984 0.1875 -0.3092231007393288
v -0.46768478627442467 0.1875 -0.3255388747668352
v -0.3437541786026984 0.0625 -0.3092231007393288
v -0.46768478627442467 0.0625 -0.3255388747668352
vt 0.015625 1
vt 0 1
vt 0 0.984375
vt 0.015625 0.984375
vt 0.015625 0.984375
vt 0.015625 1
vt 0 1
vt 0 0.984375
vt 0 0.984375
vt 0.015625 0.984375
vt 0.015625 1
vt 0 1
vt 0.015625 0.984375
vt 0.015625 1
vt 0 1
vt 0 0.984375
vt 0.015625 0.984375
vt 0.015625 1
vt 0 1
vt 0 0.984375
vt 0.015625 1
vt 0 1
vt 0 0.984375
vt 0.015625 0.984375
vn 0.13052619222005135 0 -0.9914448613738105
vn -0.13052619222005135 0 0.9914448613738105
vn 0 1 0
vn 0 -1 0
vn 0.9914448613738105 0 0.13052619222005135
vn -0.9914448613738105 0 -0.13052619222005135
usemtl m_8fb951f0-ffa5-b76f-586d-4410fb470b23
f 94/269/68 93/270/68 95/271/68 96/272/68
f 99/273/69 97/274/69 98/275/69 100/276/69
f 97/277/70 93/278/70 94/279/70 98/280/70
f 96/281/71 95/282/71 99/283/71 100/284/71
f 95/285/72 93/286/72 97/287/72 99/288/72
f 98/289/73 94/290/73 96/291/73 100/292/73